<svg width="10" height="10" viewBox="0 0 10 10" fill="none" xmlns="http://www.w3.org/2000/svg">
<path d="M9.85375 9.14625C9.90021 9.1927 9.93706 9.24785 9.9622 9.30855C9.98734 9.36925 10.0003 9.4343 10.0003 9.5C10.0003 9.5657 9.98734 9.63075 9.9622 9.69145C9.93706 9.75214 9.90021 9.80729 9.85375 9.85375C9.8073 9.9002 9.75215 9.93705 9.69145 9.96219C9.63075 9.98734 9.5657 10.0003 9.5 10.0003C9.4343 10.0003 9.36925 9.98734 9.30855 9.96219C9.24786 9.93705 9.19271 9.9002 9.14625 9.85375L5 5.70687L0.853753 9.85375C0.759933 9.94757 0.632685 10.0003 0.500003 10.0003C0.367321 10.0003 0.240074 9.94757 0.146253 9.85375C0.052433 9.75993 -0.000274656 9.63268 -0.000274658 9.5C-0.000274661 9.36732 0.052433 9.24007 0.146253 9.14625L4.29313 5L0.146253 0.853749C0.052433 0.759929 -0.000274658 0.632681 -0.000274658 0.499999C-0.000274658 0.367317 0.052433 0.24007 0.146253 0.14625C0.240074 0.0524292 0.367321 -0.000278473 0.500003 -0.000278473C0.632685 -0.000278473 0.759933 0.0524292 0.853753 0.14625L5 4.29312L9.14625 0.14625C9.24007 0.0524292 9.36732 -0.000278476 9.5 -0.000278473C9.63268 -0.00027847 9.75993 0.0524292 9.85375 0.14625C9.94757 0.24007 10.0003 0.367317 10.0003 0.499999C10.0003 0.632681 9.94757 0.759929 9.85375 0.853749L5.70688 5L9.85375 9.14625Z" fill="#989898"/>
</svg>
