<svg width="13" height="12" viewBox="0 0 13 12" fill="#E36363" xmlns="http://www.w3.org/2000/svg">
<path fill-rule="#E36363" clip-rule="evenodd" d="M0.500003 1C0.776145 1 1 1.22386 1 1.5V4H3.5C3.77615 4 4 4.22386 4 4.5C4 4.77614 3.77615 5 3.5 5H0.500003C0.22386 5 2.85485e-06 4.77614 2.85485e-06 4.5V1.5C2.85485e-06 1.22386 0.22386 1 0.500003 1Z" fill="#E36363"/>
<path fill-rule="#E36363" clip-rule="evenodd" d="M5.80802 0.119528C6.96381 -0.114626 8.16298 -0.00299236 9.2557 0.440481C10.3484 0.883954 11.2862 1.6396 11.9519 2.61301C12.6176 3.58641 12.9817 4.73441 12.9987 5.91356C13.0157 7.09272 12.6849 8.25074 12.0475 9.24293C11.4101 10.2351 10.4945 11.0175 9.41504 11.4923C8.33557 11.9671 7.14012 12.1132 5.97805 11.9125C4.81599 11.7118 3.73884 11.173 2.8812 10.3636C2.68037 10.1741 2.67121 9.85765 2.86075 9.65682C3.05028 9.45599 3.36673 9.44684 3.56756 9.63637C4.28226 10.3109 5.17988 10.7598 6.14827 10.9271C7.11666 11.0944 8.11287 10.9726 9.01243 10.5769C9.91199 10.1813 10.675 9.52928 11.2062 8.70245C11.7373 7.87562 12.013 6.91061 11.9988 5.92798C11.9847 4.94535 11.6813 3.98869 11.1265 3.17752C10.5717 2.36635 9.79024 1.73664 8.87964 1.36708C7.96905 0.997517 6.96974 0.904489 6.00658 1.09962C5.04341 1.29475 4.15911 1.76938 3.46415 2.46421C3.45895 2.46941 3.45363 2.4745 3.44821 2.47946L0.837582 4.86884C0.633878 5.05528 0.317605 5.04128 0.131166 4.83758C-0.0552735 4.63387 -0.0412784 4.3176 0.162425 4.13116L2.76509 1.74907C3.59782 0.919613 4.65591 0.352936 5.80802 0.119528Z" fill="##E36363"/>
</svg>
